{
	"asset":{
		"generator":"Khronos glTF Blender I/O v4.5.47",
		"version":"2.0"
	},
	"scene":0,
	"scenes":[
		{
			"name":"Scene",
			"nodes":[
				1
			]
		}
	],
	"nodes":[
		{
			"mesh":0,
			"name":"leaves"
		},
		{
			"children":[
				0
			],
			"mesh":1,
			"name":"tree"
		}
	],
	"materials":[
		{
			"doubleSided":true,
			"name":"Material.001",
			"pbrMetallicRoughness":{
				"baseColorFactor":[
					0.0066833291202783585,
					0.05342572182416916,
					0,
					1
				],
				"metallicFactor":0,
				"roughnessFactor":0.5
			}
		},
		{
			"doubleSided":true,
			"name":"Material.002",
			"pbrMetallicRoughness":{
				"baseColorFactor":[
					0.05551940202713013,
					0.02813231572508812,
					0,
					1
				],
				"metallicFactor":0,
				"roughnessFactor":0.5
			}
		}
	],
	"meshes":[
		{
			"name":"leaves",
			"primitives":[
				{
					"attributes":{
						"POSITION":0,
						"NORMAL":1,
						"TEXCOORD_0":2
					},
					"indices":3,
					"material":0
				}
			]
		},
		{
			"name":"tree",
			"primitives":[
				{
					"attributes":{
						"POSITION":4,
						"NORMAL":5,
						"TEXCOORD_0":6
					},
					"indices":7,
					"material":1
				}
			]
		}
	],
	"accessors":[
		{
			"bufferView":0,
			"componentType":5126,
			"count":225880,
			"max":[
				1.5506556034088135,
				4.8979268074035645,
				1.6042592525482178
			],
			"min":[
				-1.644935965538025,
				0.03089354932308197,
				-1.5302363634109497
			],
			"type":"VEC3"
		},
		{
			"bufferView":1,
			"componentType":5126,
			"count":225880,
			"type":"VEC3"
		},
		{
			"bufferView":2,
			"componentType":5126,
			"count":225880,
			"type":"VEC2"
		},
		{
			"bufferView":3,
			"componentType":5125,
			"count":338820,
			"type":"SCALAR"
		},
		{
			"bufferView":4,
			"componentType":5126,
			"count":32868,
			"max":[
				1.3989986181259155,
				4.735759258270264,
				1.472000002861023
			],
			"min":[
				-1.4849480390548706,
				0,
				-1.3801745176315308
			],
			"type":"VEC3"
		},
		{
			"bufferView":5,
			"componentType":5126,
			"count":32868,
			"type":"VEC3"
		},
		{
			"bufferView":6,
			"componentType":5126,
			"count":32868,
			"type":"VEC2"
		},
		{
			"bufferView":7,
			"componentType":5123,
			"count":164160,
			"type":"SCALAR"
		}
	],
	"bufferViews":[
		{
			"buffer":0,
			"byteLength":2710560,
			"byteOffset":0,
			"target":34962
		},
		{
			"buffer":0,
			"byteLength":2710560,
			"byteOffset":2710560,
			"target":34962
		},
		{
			"buffer":0,
			"byteLength":1807040,
			"byteOffset":5421120,
			"target":34962
		},
		{
			"buffer":0,
			"byteLength":1355280,
			"byteOffset":7228160,
			"target":34963
		},
		{
			"buffer":0,
			"byteLength":394416,
			"byteOffset":8583440,
			"target":34962
		},
		{
			"buffer":0,
			"byteLength":394416,
			"byteOffset":8977856,
			"target":34962
		},
		{
			"buffer":0,
			"byteLength":262944,
			"byteOffset":9372272,
			"target":34962
		},
		{
			"buffer":0,
			"byteLength":328320,
			"byteOffset":9635216,
			"target":34963
		}
	],
	"buffers":[
		{
			"byteLength":9963536,
			"uri":"xmas-tree.bin"
		}
	]
}
